<svg width="269" height="100" viewBox="0 0 269 100" fill="none" xmlns="http://www.w3.org/2000/svg">
<path d="M0.128 6.88V1.304H20.256V98H14.136V6.88H0.128ZM35.8673 49.176C35.8673 33.4907 38.134 21.432 42.6673 13C47.2006 4.47733 55.542 0.215994 67.6913 0.215994C79.75 0.215994 88.046 4.47733 92.5793 13C97.1127 21.432 99.3793 33.4907 99.3793 49.176C99.3793 65.0427 97.1127 77.2827 92.5793 85.896C88.046 94.4187 79.75 98.68 67.6913 98.68C55.542 98.68 47.2006 94.4187 42.6673 85.896C38.134 77.2827 35.8673 65.0427 35.8673 49.176ZM93.3953 49.176C93.3953 40.1093 92.7153 32.448 91.3553 26.192C90.086 19.936 87.5473 14.9947 83.7393 11.368C80.022 7.65066 74.6726 5.792 67.6913 5.792C60.71 5.792 55.3153 7.65066 51.5073 11.368C47.79 14.9947 45.2513 19.936 43.8913 26.192C42.622 32.448 41.9873 40.1093 41.9873 49.176C41.9873 58.424 42.622 66.2213 43.8913 72.568C45.2513 78.824 47.79 83.8107 51.5073 87.528C55.3153 91.2453 60.71 93.104 67.6913 93.104C74.6726 93.104 80.022 91.2453 83.7393 87.528C87.5473 83.8107 90.086 78.824 91.3553 72.568C92.7153 66.2213 93.3953 58.424 93.3953 49.176ZM108.976 19.936C108.976 14.496 110.698 10.0533 114.144 6.60799C117.589 3.16266 121.941 1.43999 127.2 1.43999C132.458 1.43999 136.81 3.16266 140.256 6.60799C143.701 10.0533 145.424 14.496 145.424 19.936C145.424 25.376 143.701 29.8187 140.256 33.264C136.81 36.7093 132.458 38.432 127.2 38.432C121.941 38.432 117.589 36.7093 114.144 33.264C110.698 29.8187 108.976 25.376 108.976 19.936ZM181.328 2.528L124.616 98H118.36L174.936 2.528H181.328ZM127.2 5.656C123.392 5.656 120.264 6.97066 117.816 9.6C115.458 12.1387 114.28 15.584 114.28 19.936C114.28 24.1973 115.458 27.6427 117.816 30.272C120.264 32.9013 123.392 34.216 127.2 34.216C131.008 34.216 134.09 32.9013 136.448 30.272C138.896 27.6427 140.12 24.1973 140.12 19.936C140.12 15.584 138.896 12.1387 136.448 9.6C134.09 6.97066 131.008 5.656 127.2 5.656ZM154.4 80.728C154.4 75.288 156.122 70.8453 159.568 67.4C163.013 63.9547 167.365 62.232 172.624 62.232C177.882 62.232 182.189 63.9547 185.544 67.4C188.989 70.8453 190.712 75.288 190.712 80.728C190.712 86.168 188.989 90.6107 185.544 94.056C182.189 97.5013 177.882 99.224 172.624 99.224C167.365 99.224 163.013 97.5013 159.568 94.056C156.122 90.6107 154.4 86.168 154.4 80.728ZM172.488 66.448C168.68 66.448 165.552 67.7627 163.104 70.392C160.746 72.9307 159.568 76.376 159.568 80.728C159.568 84.9893 160.746 88.4347 163.104 91.064C165.552 93.6027 168.68 94.872 172.488 94.872C176.386 94.872 179.514 93.6027 181.872 91.064C184.32 88.4347 185.544 84.9893 185.544 80.728C185.544 76.376 184.32 72.9307 181.872 70.392C179.514 67.7627 176.386 66.448 172.488 66.448ZM268.297 49.584H236.473V81.68H230.625V49.584H198.937V44.416H230.625V12.32H236.473V44.416H268.297V49.584Z" fill="url(#paint0_linear_30_174)"/>
<defs>
<linearGradient id="paint0_linear_30_174" x1="-3" y1="-18" x2="113.005" y2="203.402" gradientUnits="userSpaceOnUse">
<stop offset="0.217839" stop-color="#D383FC"/>
<stop offset="0.392501" stop-color="#CB6AFB"/>
<stop offset="0.868489" stop-color="#CB6AFB" stop-opacity="0.2"/>
</linearGradient>
</defs>
</svg>
