<svg width="140" height="99" viewBox="0 0 140 99" fill="none" xmlns="http://www.w3.org/2000/svg">
<path d="M1.704 26.6C2.52 18.3493 5.69333 11.8667 11.224 7.15199C16.8453 2.43733 24.2347 0.0799961 33.392 0.0799961C39.2853 0.0799961 44.3173 1.168 48.488 3.34399C52.6587 5.42933 55.832 8.28533 58.008 11.912C60.184 15.5387 61.272 19.664 61.272 24.288C61.272 30.0907 59.504 35.1227 55.968 39.384C52.432 43.5547 47.0373 46.048 39.784 46.864V47.68C46.7653 48.768 52.3867 51.4427 56.648 55.704C60.9093 59.9653 63.04 65.6773 63.04 72.84C63.04 80.456 60.5013 86.712 55.424 91.608C50.4373 96.4133 43.0933 98.816 33.392 98.816C24.2347 98.816 16.664 96.368 10.68 91.472C4.78667 86.576 1.25067 79.64 0.0720001 70.664H6.056C7.144 77.3733 10.0453 82.8587 14.76 87.12C19.4747 91.2907 25.6853 93.376 33.392 93.376C41.1893 93.376 47.0827 91.4267 51.072 87.528C55.152 83.6293 57.192 78.5973 57.192 72.432C57.192 64.9973 54.336 59.4213 48.624 55.704C43.0027 51.9867 34.9333 50.128 24.416 50.128H21.832V44.824H24.552C45.0427 44.7333 55.288 38.024 55.288 24.696C55.288 18.8933 53.3387 14.224 49.44 10.688C45.632 7.15199 40.2373 5.38399 33.256 5.38399C26.456 5.38399 20.6987 7.19733 15.984 10.824C11.36 14.36 8.59467 19.6187 7.688 26.6H1.704ZM75.5626 49.176C75.5626 33.4907 77.8293 21.432 82.3626 13C86.896 4.47733 95.2373 0.215994 107.387 0.215994C119.445 0.215994 127.741 4.47733 132.275 13C136.808 21.432 139.075 33.4907 139.075 49.176C139.075 65.0427 136.808 77.2827 132.275 85.896C127.741 94.4187 119.445 98.68 107.387 98.68C95.2373 98.68 86.896 94.4187 82.3626 85.896C77.8293 77.2827 75.5626 65.0427 75.5626 49.176ZM133.091 49.176C133.091 40.1093 132.411 32.448 131.051 26.192C129.781 19.936 127.243 14.9947 123.435 11.368C119.717 7.65066 114.368 5.792 107.387 5.792C100.405 5.792 95.0106 7.65066 91.2026 11.368C87.4853 14.9947 84.9466 19.936 83.5866 26.192C82.3173 32.448 81.6826 40.1093 81.6826 49.176C81.6826 58.424 82.3173 66.2213 83.5866 72.568C84.9466 78.824 87.4853 83.8107 91.2026 87.528C95.0106 91.2453 100.405 93.104 107.387 93.104C114.368 93.104 119.717 91.2453 123.435 87.528C127.243 83.8107 129.781 78.824 131.051 72.568C132.411 66.2213 133.091 58.424 133.091 49.176Z" fill="url(#paint0_linear_30_182)"/>
<defs>
<linearGradient id="paint0_linear_30_182" x1="-7" y1="-18" x2="133.794" y2="132.249" gradientUnits="userSpaceOnUse">
<stop offset="0.217839" stop-color="#D383FC"/>
<stop offset="0.392501" stop-color="#CB6AFB"/>
<stop offset="0.868489" stop-color="#CB6AFB" stop-opacity="0.2"/>
</linearGradient>
</defs>
</svg>
