<svg width="124" height="99" viewBox="0 0 124 99" fill="none" xmlns="http://www.w3.org/2000/svg">
<path d="M1.704 26.6C2.52 18.3493 5.69333 11.8667 11.224 7.15199C16.8453 2.43733 24.2347 0.0799961 33.392 0.0799961C39.2853 0.0799961 44.3173 1.168 48.488 3.34399C52.6587 5.42933 55.832 8.28533 58.008 11.912C60.184 15.5387 61.272 19.664 61.272 24.288C61.272 30.0907 59.504 35.1227 55.968 39.384C52.432 43.5547 47.0373 46.048 39.784 46.864V47.68C46.7653 48.768 52.3867 51.4427 56.648 55.704C60.9093 59.9653 63.04 65.6773 63.04 72.84C63.04 80.456 60.5013 86.712 55.424 91.608C50.4373 96.4133 43.0933 98.816 33.392 98.816C24.2347 98.816 16.664 96.368 10.68 91.472C4.78667 86.576 1.25067 79.64 0.0720001 70.664H6.056C7.144 77.3733 10.0453 82.8587 14.76 87.12C19.4747 91.2907 25.6853 93.376 33.392 93.376C41.1893 93.376 47.0827 91.4267 51.072 87.528C55.152 83.6293 57.192 78.5973 57.192 72.432C57.192 64.9973 54.336 59.4213 48.624 55.704C43.0027 51.9867 34.9333 50.128 24.416 50.128H21.832V44.824H24.552C45.0427 44.7333 55.288 38.024 55.288 24.696C55.288 18.8933 53.3387 14.224 49.44 10.688C45.632 7.15199 40.2373 5.38399 33.256 5.38399C26.456 5.38399 20.6987 7.19733 15.984 10.824C11.36 14.36 8.59467 19.6187 7.688 26.6H1.704ZM116.635 98L95.8266 65.496L75.4266 98H68.8986L92.6986 60.736L69.1706 24.152H76.1066L96.6426 55.976L116.771 24.152H123.163L99.6346 60.872L123.571 98H116.635Z" fill="url(#paint0_linear_30_166)"/>
<defs>
<linearGradient id="paint0_linear_30_166" x1="-7" y1="-18" x2="133.559" y2="110.844" gradientUnits="userSpaceOnUse">
<stop offset="0.217839" stop-color="#D383FC"/>
<stop offset="0.392501" stop-color="#CB6AFB"/>
<stop offset="0.868489" stop-color="#CB6AFB" stop-opacity="0.2"/>
</linearGradient>
</defs>
</svg>
